<svg xmlns="http://www.w3.org/2000/svg" viewBox="0 0 768 768" aria-label="Minotaurus">
  <title>Minotaurus</title>
  <rect width="768" height="768" rx="168" fill="#000000"/>
  <g transform="translate(128 124) scale(0.7536)" fill="#ffffff" fill-rule="evenodd" stroke="#ffffff" stroke-width="14" stroke-linejoin="round" stroke-linecap="round">
    <path d="M35.2,2.0L4.0,67.3L3.0,147.7L30.1,202.9L97.4,252.1L1.0,254.1L1.0,261.2L76.3,346.5L153.7,341.5L163.7,348.5L154.7,435.9L163.7,443.0L228.0,579.6L236.0,632.8L282.2,688.0L393.7,689.0L441.9,632.8L452.0,574.5L514.3,443.0L523.3,435.9L515.3,347.5L525.3,341.5L601.7,347.5L679.0,259.1L678.0,254.1L581.6,252.1L633.8,217.0L669.0,169.7L679.0,106.5L660.9,31.1L644.8,4.0L633.8,2.0L628.8,82.4L611.7,113.5L592.6,128.6L478.1,162.7L392.7,200.9L329.5,211.9L262.2,192.9L241.1,177.8L183.8,157.7L112.5,140.6L75.3,121.5L51.2,87.4L46.2,5.0ZM282.2,669.0L302.3,654.9L374.7,654.9L393.7,666.9L395.7,670.0L390.7,679.0L388.7,681.0L289.3,681.0L284.3,674.0ZM409.8,581.6L410.8,583.6L408.8,585.6L398.8,607.7L385.7,617.7L380.7,618.7L380.7,613.7L381.7,611.7ZM268.2,581.6L296.3,612.7L296.3,616.7L297.3,617.7L296.3,620.7L282.2,610.7L277.2,605.7L271.2,592.6L271.2,590.6L267.2,583.6ZM420.9,571.5L426.9,577.5L438.9,593.6L435.9,623.8L434.9,626.8L398.8,663.9L380.7,651.9L377.7,648.9L379.7,626.8L387.7,619.7L401.8,609.7L403.8,605.7L403.8,603.7L415.8,577.5L418.8,573.5L418.8,572.5ZM257.1,571.5L261.2,576.5L268.2,591.6L271.2,600.6L273.2,602.7L275.2,608.7L279.2,612.7L287.3,617.7L294.3,623.8L295.3,623.8L297.3,625.8L298.3,628.8L299.3,638.8L299.3,649.9L297.3,651.9L293.3,653.9L290.3,656.9L279.2,663.9L243.1,626.8L242.1,624.8L239.1,600.6L239.1,593.6L245.1,584.6ZM406.8,554.4L415.8,566.5L415.8,570.5L378.7,609.7L377.7,611.7L375.7,623.8L376.7,630.8L375.7,641.8L373.6,649.9L340.5,648.9L340.5,600.6L345.5,596.6L346.5,594.6L346.5,589.6L366.6,575.5L401.8,553.4ZM271.2,554.4L276.2,553.4L292.3,564.5L309.4,574.5L326.4,586.6L329.5,587.6L331.5,589.6L331.5,595.6L337.5,600.6L336.5,649.9L304.3,649.9L302.3,647.9L301.3,637.8L301.3,622.7L299.3,610.7L268.2,577.5L261.2,568.5L268.2,557.5ZM403.8,476.1L406.8,476.1L414.8,479.1L432.9,483.1L434.9,485.1L434.9,488.2L435.9,490.2L439.9,492.2L441.9,494.2L443.0,575.5L440.9,578.6L440.9,582.6L438.9,585.6L422.9,567.5L422.9,565.5L411.8,551.4L410.8,547.4L407.8,544.4L405.8,533.4L402.8,507.2L398.8,487.1L398.8,481.1ZM273.2,475.1L276.2,479.1L279.2,481.1L270.2,537.4L270.2,544.4L267.2,546.4L265.2,552.4L261.2,556.5L256.1,563.5L254.1,568.5L246.1,576.5L239.1,585.6L237.0,582.6L235.0,575.5L236.0,494.2L242.1,489.2L242.1,487.1L245.1,483.1ZM505.2,443.0L499.2,454.0L499.2,456.0L477.1,500.2L461.0,534.4L455.0,549.4L448.0,562.5L445.0,564.5L444.0,494.2L450.0,489.2L451.0,486.1L450.0,482.1L454.0,478.1L500.2,444.0ZM174.8,440.9L194.9,457.0L202.9,462.0L224.0,478.1L228.0,482.1L227.0,487.1L228.0,489.2L232.0,492.2L232.0,566.5L229.0,562.5L218.0,536.4L197.9,496.2L190.8,479.1L180.8,458.0L176.8,452.0L172.8,443.0ZM336.5,387.7L337.5,388.7L341.5,387.7L344.5,388.7L358.6,414.8L388.7,465.1L385.7,470.1L385.7,475.1L394.7,484.1L397.8,510.3L403.8,545.4L400.8,550.4L374.7,566.5L345.5,586.6L340.5,584.6L332.5,586.6L301.3,565.5L281.2,553.4L274.2,545.4L282.2,487.1L284.3,481.1L287.3,480.1L291.3,476.1L291.3,469.1L289.3,465.1L333.5,388.7ZM468.1,363.6L469.1,367.6L467.1,371.6L467.1,375.7L461.0,398.8L455.0,403.8L416.8,425.9L415.8,422.9L418.8,415.8L421.9,402.8L423.9,397.8L426.9,394.7L435.9,388.7L439.9,384.7L453.0,375.7L457.0,371.6ZM207.9,364.6L209.9,363.6L212.9,366.6L218.0,369.6L222.0,373.6L243.1,388.7L254.1,397.8L260.1,415.8L260.1,418.8L262.2,422.9L261.2,425.9L257.1,422.9L252.1,420.9L220.0,401.8L217.0,398.8L209.9,372.6L209.9,368.6ZM502.2,336.5L505.2,339.5L506.2,364.6L511.3,410.8L511.3,421.9L506.2,427.9L505.2,430.9L506.2,434.9L502.2,438.9L490.2,447.0L456.0,474.1L448.0,479.1L445.0,477.1L439.9,477.1L434.9,481.1L431.9,481.1L427.9,479.1L416.8,477.1L404.8,473.1L400.8,465.1L400.8,462.0L408.8,438.9L411.8,435.9L425.9,428.9L437.9,420.9L457.0,410.8L467.1,403.8L471.1,383.7L474.1,375.7L475.1,367.6L479.1,353.6L483.1,349.5ZM176.8,336.5L198.9,353.6L202.9,368.6L202.9,372.6L211.9,404.8L243.1,423.9L262.2,433.9L269.2,438.9L272.2,451.0L274.2,454.0L274.2,457.0L277.2,463.0L277.2,465.1L274.2,468.1L274.2,471.1L272.2,473.1L267.2,475.1L249.1,479.1L245.1,481.1L242.1,481.1L238.1,477.1L233.0,477.1L229.0,479.1L204.9,460.0L175.8,438.9L171.8,433.9L172.8,429.9L171.8,426.9L165.7,419.9L167.7,408.8L167.7,397.8L169.7,386.7L172.8,352.6L172.8,339.5ZM469.1,273.2L483.1,281.2L486.1,284.3L487.1,289.3L493.2,292.3L501.2,313.4L502.2,325.4L499.2,330.5L500.2,332.5L476.1,351.6L471.1,352.6L417.8,393.7L411.8,415.8L405.8,431.9L406.8,435.9L404.8,439.9L404.8,443.0L397.8,462.0L391.7,464.0L388.7,461.0L345.5,385.7L348.5,380.7L347.5,373.6L448.0,281.2L457.0,274.2L465.1,275.2ZM206.9,274.2L209.9,273.2L212.9,275.2L221.0,274.2L330.5,373.6L329.5,381.7L332.5,385.7L289.3,460.0L285.3,464.0L281.2,463.0L279.2,461.0L271.2,436.9L271.2,429.9L259.1,392.7L233.0,373.6L206.9,352.6L201.9,351.6L178.8,333.5L178.8,329.5L175.8,325.4L175.8,321.4L176.8,320.4L177.8,310.4L184.8,293.3L191.8,287.3L191.8,285.3L194.9,281.2L199.9,279.2ZM662.9,264.2L649.9,278.2L638.8,292.3L626.8,306.4L618.7,314.4L606.7,329.5L596.6,339.5L579.6,338.5L557.5,335.5L536.4,334.5L525.3,331.5L548.4,303.3L560.5,291.3L612.7,274.2L619.7,273.2L626.8,270.2L656.9,262.2ZM15.1,263.2L21.1,262.2L41.2,267.2L113.5,289.3L119.5,292.3L126.6,299.3L153.7,332.5L143.6,334.5L132.6,334.5L101.4,338.5L82.4,339.5ZM645.8,262.2L641.8,264.2L638.8,264.2L631.8,267.2L624.8,268.2L565.5,286.3L558.5,289.3L551.4,295.3L545.4,303.3L538.4,310.4L525.3,327.4L519.3,333.5L514.3,336.5L513.3,334.5L514.3,328.4L513.3,326.4L509.2,323.4L508.2,310.4L513.3,301.3L522.3,288.3L534.4,276.2L545.4,269.2L557.5,264.2L561.5,261.2ZM32.1,262.2L116.5,261.2L132.6,269.2L143.6,276.2L156.7,289.3L169.7,309.4L169.7,317.4L168.7,323.4L163.7,329.5L163.7,332.5L164.7,333.5L163.7,336.5L158.7,333.5L153.7,328.4L135.6,305.3L121.5,290.3L115.5,287.3L71.3,273.2L64.3,272.2L43.2,265.2L36.2,264.2ZM438.9,196.9L440.9,198.9L444.0,206.9L448.0,224.0L452.0,234.0L459.0,259.1L454.0,265.2L455.0,271.2L345.5,371.6L341.5,369.6L341.5,225.0L344.5,224.0L347.5,218.0L350.5,216.0L360.6,214.9L390.7,206.9L430.9,192.9L433.9,195.9ZM236.0,195.9L240.1,194.9L244.1,191.8L247.1,191.8L266.2,199.9L290.3,207.9L317.4,214.9L326.4,216.0L330.5,218.0L331.5,222.0L333.5,224.0L336.5,225.0L336.5,369.6L332.5,371.6L224.0,273.2L223.0,271.2L224.0,265.2L218.0,258.1L223.0,243.1L225.0,232.0L231.0,213.9L234.0,199.9ZM613.7,176.8L614.7,178.8L611.7,181.8L593.6,191.8L534.4,220.0L519.3,226.0L502.2,250.1L496.2,262.2L492.2,276.2L490.2,278.2L486.1,279.2L471.1,271.2L469.1,268.2L469.1,264.2L465.1,260.1L462.0,259.1L459.0,250.1L458.0,243.1L454.0,233.0L444.0,198.9L444.0,195.9L447.0,192.9L448.0,187.8L451.0,184.8L460.0,179.8L478.1,171.8L493.2,166.7L517.3,160.7L535.4,157.7L559.5,151.7L566.5,148.7L571.5,148.7L577.5,151.7ZM63.3,178.8L67.3,174.8L102.5,150.7L109.5,147.7L118.5,151.7L187.8,167.7L206.9,174.8L225.0,183.8L228.0,186.8L228.0,189.8L232.0,194.9L232.0,197.9L230.0,201.9L228.0,212.9L218.0,245.1L216.0,256.1L213.9,260.1L209.9,262.2L207.9,267.2L208.9,269.2L206.9,271.2L191.8,279.2L187.8,278.2L184.8,274.2L182.8,265.2L175.8,250.1L158.7,226.0L94.4,196.9L92.4,194.9L90.4,194.9L68.3,182.8ZM670.0,126.6L665.9,150.7L661.9,163.7L653.9,180.8L641.8,196.9L619.7,217.0L596.6,233.0L572.5,247.1L552.4,256.1L530.3,268.2L518.3,279.2L505.2,298.3L502.2,298.3L498.2,290.3L498.2,281.2L496.2,279.2L495.2,275.2L499.2,263.2L504.2,253.1L520.3,230.0L528.3,225.0L550.4,216.0L586.6,198.9L619.7,180.8L631.8,170.8L646.9,154.7L656.9,141.6L665.9,126.6ZM10.0,124.5L34.2,157.7L58.3,180.8L93.4,199.9L149.7,225.0L157.7,230.0L171.8,249.1L178.8,263.2L182.8,276.2L178.8,283.2L179.8,289.3L175.8,296.3L172.8,298.3L164.7,285.3L147.7,268.2L134.6,260.1L102.5,245.1L80.4,232.0L52.2,211.9L33.1,192.9L24.1,179.8L17.1,165.7L11.0,144.6L9.0,132.6ZM42.2,100.4L47.2,100.4L50.2,103.5L54.2,111.5L63.3,122.5L70.3,128.6L84.4,137.6L98.4,143.6L100.4,146.6L81.4,160.7L59.3,174.8L55.2,173.8L48.2,167.7L33.1,151.7L16.1,127.6L14.1,120.5L14.1,118.5L17.1,115.5ZM634.8,99.4L638.8,102.5L656.9,112.5L661.9,116.5L662.9,116.5L664.9,120.5L664.9,122.5L661.9,128.6L658.9,131.6L655.9,137.6L641.8,155.7L627.8,169.7L621.7,174.8L618.7,174.8L595.6,159.7L592.6,156.7L579.6,148.7L578.6,144.6L590.6,139.6L602.7,132.6L610.7,126.6L619.7,117.5L626.8,107.5L628.8,102.5L630.8,100.4ZM643.8,20.1L648.9,27.1L657.9,46.2L662.9,60.3L666.9,76.3L670.0,96.4L669.0,112.5L665.9,113.5L657.9,107.5L649.9,103.5L638.8,96.4L636.8,94.4L635.8,88.4L638.8,77.3L641.8,60.3ZM35.2,20.1L36.2,56.2L37.2,65.3L40.2,80.4L43.2,87.4L43.2,90.4L41.2,94.4L38.2,97.4L24.1,105.5L16.1,111.5L11.0,113.5L8.0,110.5L8.0,101.4L10.0,82.4L13.1,67.3L18.1,51.2L23.1,39.2L31.1,24.1Z"/>
  </g>
</svg>
